<svg width="296" height="63" viewBox="0 0 296 63" fill="none" xmlns="http://www.w3.org/2000/svg">
<path d="M14.4176 0.90909V30H9.14773V6.03693H8.97727L2.1733 10.3835V5.55398L9.40341 0.90909H14.4176ZM31.9176 30.3977C30.0237 30.3977 28.3286 30.0426 26.8324 29.3324C25.3362 28.6127 24.1477 27.6278 23.267 26.3778C22.3958 25.1278 21.9318 23.6979 21.875 22.0881H26.9886C27.0833 23.2812 27.5994 24.2566 28.5369 25.0142C29.4744 25.7623 30.6013 26.1364 31.9176 26.1364C32.9498 26.1364 33.8684 25.8996 34.6733 25.4261C35.4782 24.9527 36.1127 24.2945 36.5767 23.4517C37.0407 22.6089 37.268 21.6477 37.2585 20.5682C37.268 19.4697 37.036 18.4943 36.5625 17.642C36.089 16.7898 35.4403 16.1222 34.6165 15.6392C33.7926 15.1468 32.8456 14.9006 31.7756 14.9006C30.9044 14.8911 30.0473 15.0521 29.2045 15.3835C28.3617 15.715 27.6941 16.1506 27.2017 16.6903L22.4432 15.9091L23.9631 0.90909H40.8381V5.3125H28.3239L27.4858 13.0256H27.6562C28.196 12.3911 28.9583 11.8655 29.9432 11.4489C30.928 11.0227 32.0076 10.8097 33.1818 10.8097C34.9432 10.8097 36.5152 11.2263 37.8977 12.0597C39.2803 12.8835 40.3693 14.0199 41.1648 15.4688C41.9602 16.9176 42.358 18.5748 42.358 20.4403C42.358 22.3627 41.9129 24.0767 41.0227 25.5824C40.142 27.0786 38.9157 28.2576 37.3438 29.1193C35.7812 29.9716 33.9725 30.3977 31.9176 30.3977ZM2.35795 58H0.511364L5.85227 43.4545H7.67045L13.0114 58H11.1648L6.81818 45.7557H6.70455L2.35795 58ZM3.03977 52.3182H10.483V53.8807H3.03977V52.3182ZM16.7259 51.4375V58H15.0497V47.0909H16.669V48.7955H16.8111C17.0668 48.2415 17.455 47.7964 17.9759 47.4602C18.4967 47.1193 19.169 46.9489 19.9929 46.9489C20.7315 46.9489 21.3778 47.1004 21.9318 47.4034C22.4858 47.7017 22.9167 48.1562 23.2244 48.767C23.5322 49.3731 23.6861 50.1402 23.6861 51.0682V58H22.0099V51.1818C22.0099 50.3248 21.7874 49.6572 21.3423 49.179C20.8973 48.696 20.2865 48.4545 19.5099 48.4545C18.9749 48.4545 18.4967 48.5705 18.0753 48.8026C17.6586 49.0346 17.3295 49.3731 17.0881 49.8182C16.8466 50.2633 16.7259 50.803 16.7259 51.4375ZM31.1808 58.2273C30.1959 58.2273 29.3318 57.9929 28.5884 57.5241C27.8498 57.0554 27.2721 56.3996 26.8555 55.5568C26.4435 54.714 26.2376 53.7292 26.2376 52.6023C26.2376 51.4659 26.4435 50.474 26.8555 49.6264C27.2721 48.7789 27.8498 48.1207 28.5884 47.652C29.3318 47.1832 30.1959 46.9489 31.1808 46.9489C32.1656 46.9489 33.0273 47.1832 33.766 47.652C34.5094 48.1207 35.087 48.7789 35.4989 49.6264C35.9156 50.474 36.1239 51.4659 36.1239 52.6023C36.1239 53.7292 35.9156 54.714 35.4989 55.5568C35.087 56.3996 34.5094 57.0554 33.766 57.5241C33.0273 57.9929 32.1656 58.2273 31.1808 58.2273ZM31.1808 56.7216C31.9289 56.7216 32.5444 56.5298 33.0273 56.1463C33.5103 55.7628 33.8678 55.2585 34.0998 54.6335C34.3318 54.0085 34.4478 53.3314 34.4478 52.6023C34.4478 51.8731 34.3318 51.1937 34.0998 50.5639C33.8678 49.9342 33.5103 49.4252 33.0273 49.0369C32.5444 48.6487 31.9289 48.4545 31.1808 48.4545C30.4326 48.4545 29.8171 48.6487 29.3342 49.0369C28.8512 49.4252 28.4937 49.9342 28.2617 50.5639C28.0297 51.1937 27.9137 51.8731 27.9137 52.6023C27.9137 53.3314 28.0297 54.0085 28.2617 54.6335C28.4937 55.2585 28.8512 55.7628 29.3342 56.1463C29.8171 56.5298 30.4326 56.7216 31.1808 56.7216ZM46.4098 49.5341L44.9041 49.9602C44.8094 49.7093 44.6697 49.4654 44.4851 49.2287C44.3052 48.9872 44.0589 48.7884 43.7464 48.6321C43.4339 48.4759 43.0339 48.3977 42.5462 48.3977C41.8786 48.3977 41.3222 48.5516 40.8771 48.8594C40.4368 49.1624 40.2166 49.5483 40.2166 50.017C40.2166 50.4337 40.3681 50.7628 40.6712 51.0043C40.9742 51.2457 41.4477 51.447 42.0916 51.608L43.7109 52.0057C44.6863 52.2424 45.4131 52.6046 45.8913 53.0923C46.3696 53.5753 46.6087 54.1979 46.6087 54.9602C46.6087 55.5852 46.4287 56.1439 46.0689 56.6364C45.7138 57.1288 45.2166 57.517 44.5774 57.8011C43.9382 58.0852 43.1948 58.2273 42.3473 58.2273C41.2346 58.2273 40.3137 57.9858 39.5845 57.5028C38.8554 57.0199 38.3937 56.3144 38.1996 55.3864L39.7905 54.9886C39.942 55.5758 40.2285 56.0161 40.6499 56.3097C41.076 56.6032 41.6323 56.75 42.3189 56.75C43.1001 56.75 43.7204 56.5843 44.1797 56.2528C44.6437 55.9167 44.8757 55.5142 44.8757 55.0455C44.8757 54.6667 44.7431 54.3494 44.478 54.0938C44.2128 53.8333 43.8056 53.6392 43.2564 53.5114L41.4382 53.0852C40.4392 52.8485 39.7053 52.4815 39.2365 51.9844C38.7725 51.4825 38.5405 50.8551 38.5405 50.1023C38.5405 49.4867 38.7133 48.9422 39.0589 48.4688C39.4093 47.9953 39.8852 47.6236 40.4865 47.3537C41.0926 47.0838 41.7791 46.9489 42.5462 46.9489C43.6257 46.9489 44.4732 47.1856 45.0888 47.6591C45.709 48.1326 46.1494 48.7576 46.4098 49.5341ZM58.8761 58.2273C57.967 58.2273 57.1644 57.9976 56.4684 57.5384C55.7724 57.0743 55.2279 56.4209 54.8349 55.5781C54.4419 54.7306 54.2454 53.7292 54.2454 52.5739C54.2454 51.428 54.4419 50.4337 54.8349 49.5909C55.2279 48.7481 55.7747 48.0971 56.4755 47.6378C57.1763 47.1785 57.9859 46.9489 58.9045 46.9489C59.6147 46.9489 60.1758 47.0672 60.5877 47.304C61.0044 47.536 61.3216 47.8011 61.5394 48.0994C61.762 48.393 61.9348 48.6345 62.0579 48.8239H62.1999V43.4545H63.8761V58H62.2567V56.3239H62.0579C61.9348 56.5227 61.7596 56.7737 61.5323 57.0767C61.305 57.375 60.9807 57.6425 60.5593 57.8793C60.1379 58.1113 59.5768 58.2273 58.8761 58.2273ZM59.1033 56.7216C59.7757 56.7216 60.3439 56.5464 60.8079 56.196C61.2719 55.8409 61.6246 55.3509 61.8661 54.7259C62.1076 54.0961 62.2283 53.3693 62.2283 52.5455C62.2283 51.7311 62.11 51.0185 61.8732 50.4077C61.6365 49.7921 61.2861 49.3139 60.8221 48.973C60.3581 48.6274 59.7852 48.4545 59.1033 48.4545C58.3931 48.4545 57.8013 48.6368 57.3278 49.0014C56.859 49.3613 56.5063 49.8513 56.2695 50.4716C56.0375 51.0871 55.9215 51.7784 55.9215 52.5455C55.9215 53.322 56.0399 54.0275 56.2766 54.6619C56.5181 55.2917 56.8732 55.7936 57.342 56.1676C57.8155 56.5369 58.4026 56.7216 59.1033 56.7216ZM71.7525 58.2273C70.7013 58.2273 69.7946 57.9953 69.0323 57.5312C68.2747 57.0625 67.69 56.4091 67.2781 55.571C66.8709 54.7282 66.6673 53.7481 66.6673 52.6307C66.6673 51.5133 66.8709 50.5284 67.2781 49.6761C67.69 48.8191 68.2629 48.1515 68.9968 47.6733C69.7354 47.1903 70.5972 46.9489 71.582 46.9489C72.1502 46.9489 72.7113 47.0436 73.2653 47.233C73.8192 47.4223 74.3235 47.7301 74.7781 48.1562C75.2326 48.5777 75.5948 49.1364 75.8647 49.8324C76.1346 50.5284 76.2695 51.3854 76.2695 52.4034V53.1136H67.8604V51.6648H74.565C74.565 51.0492 74.4419 50.5 74.1957 50.017C73.9542 49.5341 73.6085 49.1529 73.1587 48.8736C72.7137 48.5942 72.1881 48.4545 71.582 48.4545C70.9144 48.4545 70.3368 48.6203 69.8491 48.9517C69.3661 49.2784 68.9944 49.7045 68.734 50.2301C68.4736 50.7557 68.3434 51.3191 68.3434 51.9205V52.8864C68.3434 53.7102 68.4854 54.4086 68.7695 54.9815C69.0584 55.5497 69.4585 55.983 69.9698 56.2812C70.4812 56.5748 71.0754 56.7216 71.7525 56.7216C72.1928 56.7216 72.5906 56.66 72.9457 56.5369C73.3055 56.4091 73.6156 56.2197 73.8761 55.9688C74.1365 55.7131 74.3377 55.3958 74.4798 55.017L76.0991 55.4716C75.9286 56.0208 75.6422 56.5038 75.2397 56.9205C74.8372 57.3324 74.3401 57.6544 73.7482 57.8864C73.1564 58.1136 72.4911 58.2273 71.7525 58.2273ZM84.4442 58V47.0909H86.0636V48.7955H86.2056C86.4329 48.2131 86.7998 47.7609 87.3065 47.4389C87.8131 47.1122 88.4215 46.9489 89.1317 46.9489C89.8514 46.9489 90.4504 47.1122 90.9286 47.4389C91.4116 47.7609 91.788 48.2131 92.0579 48.7955H92.1715C92.4509 48.232 92.8699 47.7846 93.4286 47.4531C93.9873 47.117 94.6573 46.9489 95.4386 46.9489C96.4139 46.9489 97.2118 47.2543 97.832 47.8651C98.4523 48.4711 98.7624 49.4157 98.7624 50.6989V58H97.0863V50.6989C97.0863 49.8939 96.8661 49.3187 96.4258 48.973C95.9854 48.6274 95.467 48.4545 94.8704 48.4545C94.1033 48.4545 93.5091 48.6866 93.0877 49.1506C92.6663 49.6098 92.4556 50.1922 92.4556 50.8977V58H90.7511V50.5284C90.7511 49.9081 90.5498 49.4086 90.1474 49.0298C89.7449 48.6463 89.2264 48.4545 88.592 48.4545C88.1564 48.4545 87.7492 48.5705 87.3704 48.8026C86.9963 49.0346 86.6933 49.3565 86.4613 49.7685C86.234 50.1757 86.1204 50.6468 86.1204 51.1818V58H84.4442ZM106.401 58.2273C105.35 58.2273 104.443 57.9953 103.681 57.5312C102.923 57.0625 102.338 56.4091 101.926 55.571C101.519 54.7282 101.316 53.7481 101.316 52.6307C101.316 51.5133 101.519 50.5284 101.926 49.6761C102.338 48.8191 102.911 48.1515 103.645 47.6733C104.384 47.1903 105.246 46.9489 106.23 46.9489C106.799 46.9489 107.36 47.0436 107.914 47.233C108.468 47.4223 108.972 47.7301 109.426 48.1562C109.881 48.5777 110.243 49.1364 110.513 49.8324C110.783 50.5284 110.918 51.3854 110.918 52.4034V53.1136H102.509V51.6648H109.213C109.213 51.0492 109.09 50.5 108.844 50.017C108.603 49.5341 108.257 49.1529 107.807 48.8736C107.362 48.5942 106.837 48.4545 106.23 48.4545C105.563 48.4545 104.985 48.6203 104.498 48.9517C104.015 49.2784 103.643 49.7045 103.382 50.2301C103.122 50.7557 102.992 51.3191 102.992 51.9205V52.8864C102.992 53.7102 103.134 54.4086 103.418 54.9815C103.707 55.5497 104.107 55.983 104.618 56.2812C105.13 56.5748 105.724 56.7216 106.401 56.7216C106.841 56.7216 107.239 56.66 107.594 56.5369C107.954 56.4091 108.264 56.2197 108.525 55.9688C108.785 55.7131 108.986 55.3958 109.128 55.017L110.748 55.4716C110.577 56.0208 110.291 56.5038 109.888 56.9205C109.486 57.3324 108.989 57.6544 108.397 57.8864C107.805 58.1136 107.14 58.2273 106.401 58.2273ZM113.468 58V47.0909H115.087V48.7386H115.201C115.4 48.1989 115.759 47.7609 116.28 47.4247C116.801 47.0885 117.388 46.9205 118.042 46.9205C118.165 46.9205 118.319 46.9228 118.503 46.9276C118.688 46.9323 118.828 46.9394 118.922 46.9489V48.6534C118.865 48.6392 118.735 48.6179 118.532 48.5895C118.333 48.5563 118.122 48.5398 117.9 48.5398C117.369 48.5398 116.896 48.651 116.479 48.8736C116.067 49.0914 115.74 49.3944 115.499 49.7827C115.262 50.1662 115.144 50.6042 115.144 51.0966V58H113.468ZM125.009 58.2273C123.986 58.2273 123.105 57.9858 122.367 57.5028C121.628 57.0199 121.06 56.3546 120.662 55.5071C120.265 54.6596 120.066 53.6913 120.066 52.6023C120.066 51.4943 120.269 50.5166 120.676 49.669C121.088 48.8168 121.661 48.1515 122.395 47.6733C123.134 47.1903 123.996 46.9489 124.98 46.9489C125.748 46.9489 126.439 47.0909 127.054 47.375C127.67 47.6591 128.174 48.0568 128.567 48.5682C128.96 49.0795 129.204 49.6761 129.299 50.358H127.623C127.495 49.8608 127.211 49.4205 126.77 49.0369C126.335 48.6487 125.748 48.4545 125.009 48.4545C124.355 48.4545 123.783 48.625 123.29 48.9659C122.802 49.3021 122.421 49.7779 122.147 50.3935C121.877 51.0043 121.742 51.7216 121.742 52.5455C121.742 53.3883 121.874 54.1222 122.14 54.7472C122.409 55.3722 122.788 55.8575 123.276 56.2031C123.768 56.5488 124.346 56.7216 125.009 56.7216C125.444 56.7216 125.84 56.6458 126.195 56.4943C126.55 56.3428 126.851 56.125 127.097 55.8409C127.343 55.5568 127.518 55.2159 127.623 54.8182H129.299C129.204 55.4621 128.97 56.0421 128.596 56.5582C128.226 57.0696 127.736 57.4768 127.125 57.7798C126.519 58.0781 125.814 58.2273 125.009 58.2273ZM134.959 58.2557C134.268 58.2557 133.641 58.1255 133.077 57.8651C132.514 57.5999 132.066 57.2188 131.735 56.7216C131.403 56.2197 131.238 55.6136 131.238 54.9034C131.238 54.2784 131.361 53.7718 131.607 53.3835C131.853 52.9905 132.182 52.6828 132.594 52.4602C133.006 52.2377 133.461 52.072 133.958 51.9631C134.46 51.8494 134.964 51.7595 135.471 51.6932C136.133 51.608 136.671 51.544 137.083 51.5014C137.499 51.4541 137.802 51.3759 137.992 51.267C138.186 51.1581 138.283 50.9687 138.283 50.6989V50.642C138.283 49.9413 138.091 49.3968 137.708 49.0085C137.329 48.6203 136.754 48.4261 135.982 48.4261C135.182 48.4261 134.554 48.6013 134.1 48.9517C133.645 49.3021 133.326 49.6761 133.141 50.0739L131.55 49.5057C131.834 48.8428 132.213 48.3267 132.686 47.9574C133.165 47.5833 133.685 47.3229 134.249 47.1761C134.817 47.0246 135.376 46.9489 135.925 46.9489C136.275 46.9489 136.678 46.9915 137.132 47.0767C137.592 47.1572 138.034 47.3253 138.461 47.581C138.891 47.8366 139.249 48.2225 139.533 48.7386C139.817 49.2547 139.959 49.946 139.959 50.8125V58H138.283V56.5227H138.198C138.084 56.7595 137.895 57.0128 137.63 57.2827C137.364 57.5526 137.012 57.7822 136.571 57.9716C136.131 58.161 135.594 58.2557 134.959 58.2557ZM135.215 56.75C135.878 56.75 136.436 56.6198 136.891 56.3594C137.35 56.099 137.696 55.7628 137.928 55.3509C138.165 54.9389 138.283 54.5057 138.283 54.0511V52.517C138.212 52.6023 138.056 52.6804 137.814 52.7514C137.578 52.8177 137.303 52.8769 136.99 52.929C136.683 52.9763 136.382 53.0189 136.088 53.0568C135.8 53.09 135.565 53.1184 135.385 53.142C134.95 53.1989 134.542 53.2912 134.164 53.419C133.79 53.5421 133.487 53.7292 133.255 53.9801C133.027 54.2263 132.914 54.5625 132.914 54.9886C132.914 55.571 133.129 56.0114 133.56 56.3097C133.996 56.6032 134.547 56.75 135.215 56.75ZM147.138 58.2273C146.229 58.2273 145.426 57.9976 144.73 57.5384C144.034 57.0743 143.49 56.4209 143.097 55.5781C142.704 54.7306 142.507 53.7292 142.507 52.5739C142.507 51.428 142.704 50.4337 143.097 49.5909C143.49 48.7481 144.036 48.0971 144.737 47.6378C145.438 47.1785 146.248 46.9489 147.166 46.9489C147.876 46.9489 148.438 47.0672 148.849 47.304C149.266 47.536 149.583 47.8011 149.801 48.0994C150.024 48.393 150.196 48.6345 150.32 48.8239H150.462V43.4545H152.138V58H150.518V56.3239H150.32C150.196 56.5227 150.021 56.7737 149.794 57.0767C149.567 57.375 149.242 57.6425 148.821 57.8793C148.4 58.1113 147.839 58.2273 147.138 58.2273ZM147.365 56.7216C148.037 56.7216 148.606 56.5464 149.07 56.196C149.534 55.8409 149.886 55.3509 150.128 54.7259C150.369 54.0961 150.49 53.3693 150.49 52.5455C150.49 51.7311 150.372 51.0185 150.135 50.4077C149.898 49.7921 149.548 49.3139 149.084 48.973C148.62 48.6274 148.047 48.4545 147.365 48.4545C146.655 48.4545 146.063 48.6368 145.589 49.0014C145.121 49.3613 144.768 49.8513 144.531 50.4716C144.299 51.0871 144.183 51.7784 144.183 52.5455C144.183 53.322 144.302 54.0275 144.538 54.6619C144.78 55.2917 145.135 55.7936 145.604 56.1676C146.077 56.5369 146.664 56.7216 147.365 56.7216ZM159.872 58.2273C158.887 58.2273 158.023 57.9929 157.28 57.5241C156.541 57.0554 155.964 56.3996 155.547 55.5568C155.135 54.714 154.929 53.7292 154.929 52.6023C154.929 51.4659 155.135 50.474 155.547 49.6264C155.964 48.7789 156.541 48.1207 157.28 47.652C158.023 47.1832 158.887 46.9489 159.872 46.9489C160.857 46.9489 161.719 47.1832 162.457 47.652C163.201 48.1207 163.778 48.7789 164.19 49.6264C164.607 50.474 164.815 51.4659 164.815 52.6023C164.815 53.7292 164.607 54.714 164.19 55.5568C163.778 56.3996 163.201 57.0554 162.457 57.5241C161.719 57.9929 160.857 58.2273 159.872 58.2273ZM159.872 56.7216C160.62 56.7216 161.236 56.5298 161.719 56.1463C162.202 55.7628 162.559 55.2585 162.791 54.6335C163.023 54.0085 163.139 53.3314 163.139 52.6023C163.139 51.8731 163.023 51.1937 162.791 50.5639C162.559 49.9342 162.202 49.4252 161.719 49.0369C161.236 48.6487 160.62 48.4545 159.872 48.4545C159.124 48.4545 158.509 48.6487 158.026 49.0369C157.543 49.4252 157.185 49.9342 156.953 50.5639C156.721 51.1937 156.605 51.8731 156.605 52.6023C156.605 53.3314 156.721 54.0085 156.953 54.6335C157.185 55.2585 157.543 55.7628 158.026 56.1463C158.509 56.5298 159.124 56.7216 159.872 56.7216ZM177.573 58.2273C176.522 58.2273 175.615 57.9953 174.853 57.5312C174.095 57.0625 173.51 56.4091 173.098 55.571C172.691 54.7282 172.488 53.7481 172.488 52.6307C172.488 51.5133 172.691 50.5284 173.098 49.6761C173.51 48.8191 174.083 48.1515 174.817 47.6733C175.556 47.1903 176.417 46.9489 177.402 46.9489C177.971 46.9489 178.532 47.0436 179.086 47.233C179.64 47.4223 180.144 47.7301 180.598 48.1562C181.053 48.5777 181.415 49.1364 181.685 49.8324C181.955 50.5284 182.09 51.3854 182.09 52.4034V53.1136H173.681V51.6648H180.385C180.385 51.0492 180.262 50.5 180.016 50.017C179.775 49.5341 179.429 49.1529 178.979 48.8736C178.534 48.5942 178.008 48.4545 177.402 48.4545C176.735 48.4545 176.157 48.6203 175.669 48.9517C175.186 49.2784 174.815 49.7045 174.554 50.2301C174.294 50.7557 174.164 51.3191 174.164 51.9205V52.8864C174.164 53.7102 174.306 54.4086 174.59 54.9815C174.879 55.5497 175.279 55.983 175.79 56.2812C176.301 56.5748 176.896 56.7216 177.573 56.7216C178.013 56.7216 178.411 56.66 178.766 56.5369C179.126 56.4091 179.436 56.2197 179.696 55.9688C179.957 55.7131 180.158 55.3958 180.3 55.017L181.919 55.4716C181.749 56.0208 181.462 56.5038 181.06 56.9205C180.658 57.3324 180.16 57.6544 179.569 57.8864C178.977 58.1136 178.311 58.2273 177.573 58.2273ZM194.838 58.2273C193.787 58.2273 192.881 57.9953 192.118 57.5312C191.361 57.0625 190.776 56.4091 190.364 55.571C189.957 54.7282 189.753 53.7481 189.753 52.6307C189.753 51.5133 189.957 50.5284 190.364 49.6761C190.776 48.8191 191.349 48.1515 192.083 47.6733C192.821 47.1903 193.683 46.9489 194.668 46.9489C195.236 46.9489 195.797 47.0436 196.351 47.233C196.905 47.4223 197.409 47.7301 197.864 48.1562C198.319 48.5777 198.681 49.1364 198.951 49.8324C199.221 50.5284 199.355 51.3854 199.355 52.4034V53.1136H190.946V51.6648H197.651C197.651 51.0492 197.528 50.5 197.282 50.017C197.04 49.5341 196.694 49.1529 196.245 48.8736C195.8 48.5942 195.274 48.4545 194.668 48.4545C194 48.4545 193.423 48.6203 192.935 48.9517C192.452 49.2784 192.08 49.7045 191.82 50.2301C191.56 50.7557 191.429 51.3191 191.429 51.9205V52.8864C191.429 53.7102 191.571 54.4086 191.855 54.9815C192.144 55.5497 192.544 55.983 193.056 56.2812C193.567 56.5748 194.161 56.7216 194.838 56.7216C195.279 56.7216 195.676 56.66 196.032 56.5369C196.391 56.4091 196.702 56.2197 196.962 55.9688C197.222 55.7131 197.424 55.3958 197.566 55.017L199.185 55.4716C199.015 56.0208 198.728 56.5038 198.326 56.9205C197.923 57.3324 197.426 57.6544 196.834 57.8864C196.242 58.1136 195.577 58.2273 194.838 58.2273ZM202.862 47.0909L205.476 51.5511L208.089 47.0909H210.021L206.499 52.5455L210.021 58H208.089L205.476 53.767L202.862 58H200.93L204.396 52.5455L200.93 47.0909H202.862ZM212.413 62.0909V47.0909H214.032V48.8239H214.231C214.354 48.6345 214.525 48.393 214.743 48.0994C214.965 47.8011 215.282 47.536 215.694 47.304C216.111 47.0672 216.674 46.9489 217.385 46.9489C218.303 46.9489 219.113 47.1785 219.814 47.6378C220.514 48.0971 221.061 48.7481 221.454 49.5909C221.847 50.4337 222.044 51.428 222.044 52.5739C222.044 53.7292 221.847 54.7306 221.454 55.5781C221.061 56.4209 220.517 57.0743 219.821 57.5384C219.125 57.9976 218.322 58.2273 217.413 58.2273C216.712 58.2273 216.151 58.1113 215.73 57.8793C215.308 57.6425 214.984 57.375 214.757 57.0767C214.529 56.7737 214.354 56.5227 214.231 56.3239H214.089V62.0909H212.413ZM214.061 52.5455C214.061 53.3693 214.181 54.0961 214.423 54.7259C214.664 55.3509 215.017 55.8409 215.481 56.196C215.945 56.5464 216.513 56.7216 217.186 56.7216C217.886 56.7216 218.471 56.5369 218.94 56.1676C219.413 55.7936 219.769 55.2917 220.005 54.6619C220.247 54.0275 220.368 53.322 220.368 52.5455C220.368 51.7784 220.249 51.0871 220.012 50.4716C219.78 49.8513 219.428 49.3613 218.954 49.0014C218.485 48.6368 217.896 48.4545 217.186 48.4545C216.504 48.4545 215.931 48.6274 215.467 48.973C215.003 49.3139 214.653 49.7921 214.416 50.4077C214.179 51.0185 214.061 51.7311 214.061 52.5455ZM229.174 58.2273C228.123 58.2273 227.217 57.9953 226.454 57.5312C225.697 57.0625 225.112 56.4091 224.7 55.571C224.293 54.7282 224.089 53.7481 224.089 52.6307C224.089 51.5133 224.293 50.5284 224.7 49.6761C225.112 48.8191 225.685 48.1515 226.419 47.6733C227.157 47.1903 228.019 46.9489 229.004 46.9489C229.572 46.9489 230.133 47.0436 230.687 47.233C231.241 47.4223 231.745 47.7301 232.2 48.1562C232.654 48.5777 233.017 49.1364 233.287 49.8324C233.556 50.5284 233.691 51.3854 233.691 52.4034V53.1136H225.282V51.6648H231.987C231.987 51.0492 231.864 50.5 231.618 50.017C231.376 49.5341 231.03 49.1529 230.581 48.8736C230.136 48.5942 229.61 48.4545 229.004 48.4545C228.336 48.4545 227.759 48.6203 227.271 48.9517C226.788 49.2784 226.416 49.7045 226.156 50.2301C225.895 50.7557 225.765 51.3191 225.765 51.9205V52.8864C225.765 53.7102 225.907 54.4086 226.191 54.9815C226.48 55.5497 226.88 55.983 227.392 56.2812C227.903 56.5748 228.497 56.7216 229.174 56.7216C229.615 56.7216 230.012 56.66 230.368 56.5369C230.727 56.4091 231.038 56.2197 231.298 55.9688C231.558 55.7131 231.76 55.3958 231.902 55.017L233.521 55.4716C233.35 56.0208 233.064 56.5038 232.662 56.9205C232.259 57.3324 231.762 57.6544 231.17 57.8864C230.578 58.1136 229.913 58.2273 229.174 58.2273ZM236.241 58V47.0909H237.86V48.7386H237.974C238.173 48.1989 238.533 47.7609 239.054 47.4247C239.574 47.0885 240.162 46.9205 240.815 46.9205C240.938 46.9205 241.092 46.9228 241.277 46.9276C241.461 46.9323 241.601 46.9394 241.696 46.9489V48.6534C241.639 48.6392 241.509 48.6179 241.305 48.5895C241.106 48.5563 240.895 48.5398 240.673 48.5398C240.143 48.5398 239.669 48.651 239.252 48.8736C238.841 49.0914 238.514 49.3944 238.272 49.7827C238.036 50.1662 237.917 50.6042 237.917 51.0966V58H236.241ZM243.683 58V47.0909H245.359V58H243.683ZM244.535 45.2727C244.208 45.2727 243.926 45.1615 243.69 44.9389C243.458 44.7164 243.342 44.4489 243.342 44.1364C243.342 43.8239 243.458 43.5563 243.69 43.3338C243.926 43.1113 244.208 43 244.535 43C244.862 43 245.141 43.1113 245.373 43.3338C245.61 43.5563 245.728 43.8239 245.728 44.1364C245.728 44.4489 245.61 44.7164 245.373 44.9389C245.141 45.1615 244.862 45.2727 244.535 45.2727ZM253.002 58.2273C251.951 58.2273 251.045 57.9953 250.282 57.5312C249.525 57.0625 248.94 56.4091 248.528 55.571C248.121 54.7282 247.917 53.7481 247.917 52.6307C247.917 51.5133 248.121 50.5284 248.528 49.6761C248.94 48.8191 249.513 48.1515 250.247 47.6733C250.985 47.1903 251.847 46.9489 252.832 46.9489C253.4 46.9489 253.961 47.0436 254.515 47.233C255.069 47.4223 255.574 47.7301 256.028 48.1562C256.483 48.5777 256.845 49.1364 257.115 49.8324C257.385 50.5284 257.52 51.3854 257.52 52.4034V53.1136H249.11V51.6648H255.815C255.815 51.0492 255.692 50.5 255.446 50.017C255.204 49.5341 254.859 49.1529 254.409 48.8736C253.964 48.5942 253.438 48.4545 252.832 48.4545C252.164 48.4545 251.587 48.6203 251.099 48.9517C250.616 49.2784 250.244 49.7045 249.984 50.2301C249.724 50.7557 249.593 51.3191 249.593 51.9205V52.8864C249.593 53.7102 249.735 54.4086 250.02 54.9815C250.308 55.5497 250.708 55.983 251.22 56.2812C251.731 56.5748 252.325 56.7216 253.002 56.7216C253.443 56.7216 253.841 56.66 254.196 56.5369C254.556 56.4091 254.866 56.2197 255.126 55.9688C255.386 55.7131 255.588 55.3958 255.73 55.017L257.349 55.4716C257.179 56.0208 256.892 56.5038 256.49 56.9205C256.087 57.3324 255.59 57.6544 254.998 57.8864C254.406 58.1136 253.741 58.2273 253.002 58.2273ZM254.224 45.7841L252.747 43.7955L251.27 45.7841H249.679V45.6705L251.98 42.7159H253.514L255.815 45.6705V45.7841H254.224ZM261.745 51.4375V58H260.069V47.0909H261.689V48.7955H261.831C262.086 48.2415 262.475 47.7964 262.995 47.4602C263.516 47.1193 264.189 46.9489 265.012 46.9489C265.751 46.9489 266.397 47.1004 266.951 47.4034C267.505 47.7017 267.936 48.1562 268.244 48.767C268.552 49.3731 268.706 50.1402 268.706 51.0682V58H267.029V51.1818C267.029 50.3248 266.807 49.6572 266.362 49.179C265.917 48.696 265.306 48.4545 264.529 48.4545C263.994 48.4545 263.516 48.5705 263.095 48.8026C262.678 49.0346 262.349 49.3731 262.108 49.8182C261.866 50.2633 261.745 50.803 261.745 51.4375ZM276.2 58.2273C275.178 58.2273 274.297 57.9858 273.558 57.5028C272.82 57.0199 272.251 56.3546 271.854 55.5071C271.456 54.6596 271.257 53.6913 271.257 52.6023C271.257 51.4943 271.461 50.5166 271.868 49.669C272.28 48.8168 272.853 48.1515 273.587 47.6733C274.325 47.1903 275.187 46.9489 276.172 46.9489C276.939 46.9489 277.63 47.0909 278.246 47.375C278.861 47.6591 279.366 48.0568 279.759 48.5682C280.152 49.0795 280.395 49.6761 280.49 50.358H278.814C278.686 49.8608 278.402 49.4205 277.962 49.0369C277.526 48.6487 276.939 48.4545 276.2 48.4545C275.547 48.4545 274.974 48.625 274.482 48.9659C273.994 49.3021 273.613 49.7779 273.338 50.3935C273.068 51.0043 272.933 51.7216 272.933 52.5455C272.933 53.3883 273.066 54.1222 273.331 54.7472C273.601 55.3722 273.98 55.8575 274.467 56.2031C274.96 56.5488 275.537 56.7216 276.2 56.7216C276.636 56.7216 277.031 56.6458 277.386 56.4943C277.741 56.3428 278.042 56.125 278.288 55.8409C278.535 55.5568 278.71 55.2159 278.814 54.8182H280.49C280.395 55.4621 280.161 56.0421 279.787 56.5582C279.418 57.0696 278.928 57.4768 278.317 57.7798C277.711 58.0781 277.005 58.2273 276.2 58.2273ZM282.94 58V47.0909H284.616V58H282.94ZM283.793 45.2727C283.466 45.2727 283.184 45.1615 282.947 44.9389C282.715 44.7164 282.599 44.4489 282.599 44.1364C282.599 43.8239 282.715 43.5563 282.947 43.3338C283.184 43.1113 283.466 43 283.793 43C284.119 43 284.399 43.1113 284.631 43.3338C284.867 43.5563 284.986 43.8239 284.986 44.1364C284.986 44.4489 284.867 44.7164 284.631 44.9389C284.399 45.1615 284.119 45.2727 283.793 45.2727ZM290.897 58.2557C290.205 58.2557 289.578 58.1255 289.015 57.8651C288.451 57.5999 288.004 57.2188 287.672 56.7216C287.341 56.2197 287.175 55.6136 287.175 54.9034C287.175 54.2784 287.298 53.7718 287.544 53.3835C287.791 52.9905 288.12 52.6828 288.532 52.4602C288.944 52.2377 289.398 52.072 289.895 51.9631C290.397 51.8494 290.901 51.7595 291.408 51.6932C292.071 51.608 292.608 51.544 293.02 51.5014C293.437 51.4541 293.74 51.3759 293.929 51.267C294.123 51.1581 294.221 50.9687 294.221 50.6989V50.642C294.221 49.9413 294.029 49.3968 293.645 49.0085C293.266 48.6203 292.691 48.4261 291.919 48.4261C291.119 48.4261 290.492 48.6013 290.037 48.9517C289.583 49.3021 289.263 49.6761 289.078 50.0739L287.488 49.5057C287.772 48.8428 288.15 48.3267 288.624 47.9574C289.102 47.5833 289.623 47.3229 290.186 47.1761C290.755 47.0246 291.313 46.9489 291.863 46.9489C292.213 46.9489 292.615 46.9915 293.07 47.0767C293.529 47.1572 293.972 47.3253 294.398 47.581C294.829 47.8366 295.186 48.2225 295.471 48.7386C295.755 49.2547 295.897 49.946 295.897 50.8125V58H294.221V56.5227H294.135C294.022 56.7595 293.832 57.0128 293.567 57.2827C293.302 57.5526 292.949 57.7822 292.509 57.9716C292.069 58.161 291.531 58.2557 290.897 58.2557ZM291.152 56.75C291.815 56.75 292.374 56.6198 292.828 56.3594C293.288 56.099 293.633 55.7628 293.865 55.3509C294.102 54.9389 294.221 54.5057 294.221 54.0511V52.517C294.15 52.6023 293.993 52.6804 293.752 52.7514C293.515 52.8177 293.24 52.8769 292.928 52.929C292.62 52.9763 292.319 53.0189 292.026 53.0568C291.737 53.09 291.503 53.1184 291.323 53.142C290.887 53.1989 290.48 53.2912 290.101 53.419C289.727 53.5421 289.424 53.7292 289.192 53.9801C288.965 54.2263 288.851 54.5625 288.851 54.9886C288.851 55.571 289.067 56.0114 289.498 56.3097C289.933 56.6032 290.485 56.75 291.152 56.75Z" fill="black"/>
</svg>
