<svg width="311" height="63" viewBox="0 0 311 63" fill="none" xmlns="http://www.w3.org/2000/svg">
<path d="M13.4176 0.90909V30H8.14773V6.03693H7.97727L1.1733 10.3835V5.55398L8.40341 0.90909H13.4176ZM31.5568 30.554C29.2178 30.554 27.2102 29.9621 25.5341 28.7784C23.8674 27.5852 22.5843 25.8665 21.6847 23.6222C20.7945 21.3684 20.3494 18.6553 20.3494 15.483C20.3589 12.3106 20.8087 9.61174 21.6989 7.38636C22.5985 5.15151 23.8816 3.44697 25.5483 2.27273C27.2244 1.09848 29.2273 0.511363 31.5568 0.511363C33.8864 0.511363 35.8892 1.09848 37.5653 2.27273C39.2415 3.44697 40.5246 5.15151 41.4148 7.38636C42.3144 9.62121 42.7642 12.3201 42.7642 15.483C42.7642 18.6648 42.3144 21.3826 41.4148 23.6364C40.5246 25.8807 39.2415 27.5947 37.5653 28.7784C35.8987 29.9621 33.8958 30.554 31.5568 30.554ZM31.5568 26.108C33.375 26.108 34.8097 25.2131 35.8608 23.4233C36.9214 21.6241 37.4517 18.9773 37.4517 15.483C37.4517 13.1723 37.2102 11.2311 36.7273 9.65909C36.2443 8.08712 35.5625 6.90341 34.6818 6.10795C33.8011 5.30303 32.7595 4.90057 31.5568 4.90057C29.7481 4.90057 28.3182 5.80019 27.267 7.59943C26.2159 9.3892 25.6856 12.017 25.6761 15.483C25.6667 17.803 25.8987 19.7538 26.3722 21.3352C26.8551 22.9167 27.5369 24.1098 28.4176 24.9148C29.2983 25.7102 30.3447 26.108 31.5568 26.108ZM58.2365 30.554C55.8975 30.554 53.8899 29.9621 52.2138 28.7784C50.5471 27.5852 49.264 25.8665 48.3643 23.6222C47.4742 21.3684 47.0291 18.6553 47.0291 15.483C47.0386 12.3106 47.4884 9.61174 48.3786 7.38636C49.2782 5.15151 50.5613 3.44697 52.228 2.27273C53.9041 1.09848 55.907 0.511363 58.2365 0.511363C60.5661 0.511363 62.5689 1.09848 64.245 2.27273C65.9212 3.44697 67.2043 5.15151 68.0945 7.38636C68.9941 9.62121 69.4439 12.3201 69.4439 15.483C69.4439 18.6648 68.9941 21.3826 68.0945 23.6364C67.2043 25.8807 65.9212 27.5947 64.245 28.7784C62.5784 29.9621 60.5755 30.554 58.2365 30.554ZM58.2365 26.108C60.0547 26.108 61.4893 25.2131 62.5405 23.4233C63.6011 21.6241 64.1314 18.9773 64.1314 15.483C64.1314 13.1723 63.8899 11.2311 63.407 9.65909C62.924 8.08712 62.2422 6.90341 61.3615 6.10795C60.4808 5.30303 59.4392 4.90057 58.2365 4.90057C56.4278 4.90057 54.9979 5.80019 53.9467 7.59943C52.8956 9.3892 52.3653 12.017 52.3558 15.483C52.3464 17.803 52.5784 19.7538 53.0518 21.3352C53.5348 22.9167 54.2166 24.1098 55.0973 24.9148C55.978 25.7102 57.0244 26.108 58.2365 26.108ZM89.7173 24.5455V23.0114C89.7173 21.8845 89.9541 20.8475 90.4276 19.9006C90.9105 18.9536 91.6113 18.1913 92.5298 17.6136C93.4484 17.036 94.5611 16.7472 95.8679 16.7472C97.2126 16.7472 98.3395 17.036 99.2486 17.6136C100.158 18.1818 100.844 18.9394 101.308 19.8864C101.782 20.8333 102.018 21.875 102.018 23.0114V24.5455C102.018 25.6723 101.782 26.7093 101.308 27.6562C100.835 28.6032 100.139 29.3655 99.2202 29.9432C98.3111 30.5208 97.1937 30.8097 95.8679 30.8097C94.5421 30.8097 93.42 30.5208 92.5014 29.9432C91.5829 29.3655 90.8868 28.6032 90.4134 27.6562C89.9493 26.7093 89.7173 25.6723 89.7173 24.5455ZM93.4247 23.0114V24.5455C93.4247 25.2936 93.6046 25.9801 93.9645 26.6051C94.3243 27.2301 94.9588 27.5426 95.8679 27.5426C96.7865 27.5426 97.4162 27.2348 97.7571 26.6193C98.1075 25.9943 98.2827 25.303 98.2827 24.5455V23.0114C98.2827 22.2538 98.117 21.5625 97.7855 20.9375C97.4541 20.303 96.8149 19.9858 95.8679 19.9858C94.9777 19.9858 94.348 20.303 93.9787 20.9375C93.6094 21.5625 93.4247 22.2538 93.4247 23.0114ZM74.9304 7.89773V6.36364C74.9304 5.22727 75.1719 4.18561 75.6548 3.23864C76.1378 2.29167 76.8385 1.53409 77.7571 0.965908C78.6757 0.388256 79.7884 0.0994301 81.0952 0.0994301C82.4304 0.0994301 83.5526 0.388256 84.4616 0.965908C85.3802 1.53409 86.0715 2.29167 86.5355 3.23864C86.9995 4.18561 87.2315 5.22727 87.2315 6.36364V7.89773C87.2315 9.03409 86.9948 10.0758 86.5213 11.0227C86.0573 11.9602 85.366 12.7131 84.4474 13.2812C83.5289 13.8494 82.4115 14.1335 81.0952 14.1335C79.7599 14.1335 78.633 13.8494 77.7145 13.2812C76.8054 12.7131 76.1141 11.9555 75.6406 11.0085C75.1671 10.0616 74.9304 9.02462 74.9304 7.89773ZM78.6662 6.36364V7.89773C78.6662 8.6553 78.8414 9.34659 79.1918 9.97159C79.5516 10.5871 80.1861 10.8949 81.0952 10.8949C82.0043 10.8949 82.6293 10.5871 82.9702 9.97159C83.3205 9.34659 83.4957 8.6553 83.4957 7.89773V6.36364C83.4957 5.60606 83.33 4.91477 82.9986 4.28977C82.6671 3.6553 82.0327 3.33807 81.0952 3.33807C80.1955 3.33807 79.5658 3.6553 79.206 4.28977C78.8461 4.92424 78.6662 5.61553 78.6662 6.36364ZM76.5497 30L96.5497 0.90909H100.101L80.1009 30H76.5497ZM0.761364 58V43.4545H5.67614C6.8125 43.4545 7.74527 43.6487 8.47443 44.0369C9.2036 44.4205 9.74337 44.9484 10.0938 45.6207C10.4441 46.2931 10.6193 47.0578 10.6193 47.9148C10.6193 48.7718 10.4441 49.5317 10.0938 50.1946C9.74337 50.8575 9.20597 51.3783 8.48153 51.7571C7.7571 52.1312 6.83144 52.3182 5.70455 52.3182H1.72727V50.7273H5.64773C6.42424 50.7273 7.04924 50.6136 7.52273 50.3864C8.00095 50.1591 8.34659 49.8371 8.55966 49.4205C8.77746 48.9991 8.88636 48.4972 8.88636 47.9148C8.88636 47.3324 8.77746 46.8234 8.55966 46.3878C8.34186 45.9522 7.99384 45.616 7.51562 45.3793C7.03741 45.1378 6.4053 45.017 5.61932 45.017H2.52273V58H0.761364ZM7.60795 51.4659L11.1875 58H9.14205L5.61932 51.4659H7.60795ZM17.7837 58.2273C16.7326 58.2273 15.8259 57.9953 15.0636 57.5312C14.306 57.0625 13.7212 56.4091 13.3093 55.571C12.9021 54.7282 12.6985 53.7481 12.6985 52.6307C12.6985 51.5133 12.9021 50.5284 13.3093 49.6761C13.7212 48.8191 14.2942 48.1515 15.0281 47.6733C15.7667 47.1903 16.6284 46.9489 17.6133 46.9489C18.1815 46.9489 18.7425 47.0436 19.2965 47.233C19.8505 47.4223 20.3548 47.7301 20.8093 48.1562C21.2638 48.5777 21.6261 49.1364 21.896 49.8324C22.1658 50.5284 22.3008 51.3854 22.3008 52.4034V53.1136H13.8917V51.6648H20.5962C20.5962 51.0492 20.4731 50.5 20.2269 50.017C19.9854 49.5341 19.6398 49.1529 19.19 48.8736C18.7449 48.5942 18.2193 48.4545 17.6133 48.4545C16.9457 48.4545 16.368 48.6203 15.8803 48.9517C15.3974 49.2784 15.0257 49.7045 14.7653 50.2301C14.5049 50.7557 14.3746 51.3191 14.3746 51.9205V52.8864C14.3746 53.7102 14.5167 54.4086 14.8008 54.9815C15.0896 55.5497 15.4897 55.983 16.0011 56.2812C16.5124 56.5748 17.1067 56.7216 17.7837 56.7216C18.2241 56.7216 18.6218 56.66 18.9769 56.5369C19.3368 56.4091 19.6469 56.2197 19.9073 55.9688C20.1677 55.7131 20.369 55.3958 20.511 55.017L22.1303 55.4716C21.9599 56.0208 21.6734 56.5038 21.271 56.9205C20.8685 57.3324 20.3713 57.6544 19.7795 57.8864C19.1876 58.1136 18.5224 58.2273 17.7837 58.2273ZM24.8505 58V47.0909H26.4698V48.7955H26.6119C26.8391 48.2131 27.2061 47.7609 27.7127 47.4389C28.2193 47.1122 28.8278 46.9489 29.538 46.9489C30.2577 46.9489 30.8567 47.1122 31.3349 47.4389C31.8178 47.7609 32.1942 48.2131 32.4641 48.7955H32.5778C32.8571 48.232 33.2762 47.7846 33.8349 47.4531C34.3936 47.117 35.0636 46.9489 35.8448 46.9489C36.8202 46.9489 37.618 47.2543 38.2383 47.8651C38.8585 48.4711 39.1687 49.4157 39.1687 50.6989V58H37.4925V50.6989C37.4925 49.8939 37.2724 49.3187 36.832 48.973C36.3917 48.6274 35.8732 48.4545 35.2766 48.4545C34.5096 48.4545 33.9154 48.6866 33.494 49.1506C33.0726 49.6098 32.8619 50.1922 32.8619 50.8977V58H31.1573V50.5284C31.1573 49.9081 30.9561 49.4086 30.5536 49.0298C30.1512 48.6463 29.6327 48.4545 28.9982 48.4545C28.5626 48.4545 28.1554 48.5705 27.7766 48.8026C27.4026 49.0346 27.0996 49.3565 26.8675 49.7685C26.6403 50.1757 26.5266 50.6468 26.5266 51.1818V58H24.8505ZM46.6651 58.2273C45.6803 58.2273 44.8162 57.9929 44.0728 57.5241C43.3342 57.0554 42.7565 56.3996 42.3398 55.5568C41.9279 54.714 41.7219 53.7292 41.7219 52.6023C41.7219 51.4659 41.9279 50.474 42.3398 49.6264C42.7565 48.7789 43.3342 48.1207 44.0728 47.652C44.8162 47.1832 45.6803 46.9489 46.6651 46.9489C47.65 46.9489 48.5117 47.1832 49.2504 47.652C49.9937 48.1207 50.5714 48.7789 50.9833 49.6264C51.4 50.474 51.6083 51.4659 51.6083 52.6023C51.6083 53.7292 51.4 54.714 50.9833 55.5568C50.5714 56.3996 49.9937 57.0554 49.2504 57.5241C48.5117 57.9929 47.65 58.2273 46.6651 58.2273ZM46.6651 56.7216C47.4132 56.7216 48.0288 56.5298 48.5117 56.1463C48.9947 55.7628 49.3522 55.2585 49.5842 54.6335C49.8162 54.0085 49.9322 53.3314 49.9322 52.6023C49.9322 51.8731 49.8162 51.1937 49.5842 50.5639C49.3522 49.9342 48.9947 49.4252 48.5117 49.0369C48.0288 48.6487 47.4132 48.4545 46.6651 48.4545C45.917 48.4545 45.3015 48.6487 44.8185 49.0369C44.3356 49.4252 43.9781 49.9342 43.7461 50.5639C43.5141 51.1937 43.3981 51.8731 43.3981 52.6023C43.3981 53.3314 43.5141 54.0085 43.7461 54.6335C43.9781 55.2585 44.3356 55.7628 44.8185 56.1463C45.3015 56.5298 45.917 56.7216 46.6651 56.7216ZM58.9112 47.0909V48.5114H53.2578V47.0909H58.9112ZM54.9055 44.4773H56.5817V54.875C56.5817 55.3485 56.6503 55.7036 56.7876 55.9403C56.9297 56.1723 57.1096 56.3286 57.3274 56.4091C57.55 56.4848 57.7843 56.5227 58.0305 56.5227C58.2152 56.5227 58.3667 56.5133 58.4851 56.4943C58.6035 56.4706 58.6982 56.4517 58.7692 56.4375L59.1101 57.9432C58.9964 57.9858 58.8378 58.0284 58.6342 58.071C58.4306 58.1184 58.1726 58.142 57.8601 58.142C57.3866 58.142 56.9226 58.0402 56.468 57.8366C56.0182 57.633 55.6442 57.3229 55.3459 56.9062C55.0523 56.4896 54.9055 55.964 54.9055 55.3295V44.4773ZM65.7472 58.2273C64.7623 58.2273 63.8982 57.9929 63.1548 57.5241C62.4162 57.0554 61.8385 56.3996 61.4219 55.5568C61.0099 54.714 60.804 53.7292 60.804 52.6023C60.804 51.4659 61.0099 50.474 61.4219 49.6264C61.8385 48.7789 62.4162 48.1207 63.1548 47.652C63.8982 47.1832 64.7623 46.9489 65.7472 46.9489C66.732 46.9489 67.5938 47.1832 68.3324 47.652C69.0758 48.1207 69.6534 48.7789 70.0653 49.6264C70.482 50.474 70.6903 51.4659 70.6903 52.6023C70.6903 53.7292 70.482 54.714 70.0653 55.5568C69.6534 56.3996 69.0758 57.0554 68.3324 57.5241C67.5938 57.9929 66.732 58.2273 65.7472 58.2273ZM65.7472 56.7216C66.4953 56.7216 67.1108 56.5298 67.5938 56.1463C68.0767 55.7628 68.4342 55.2585 68.6662 54.6335C68.8982 54.0085 69.0142 53.3314 69.0142 52.6023C69.0142 51.8731 68.8982 51.1937 68.6662 50.5639C68.4342 49.9342 68.0767 49.4252 67.5938 49.0369C67.1108 48.6487 66.4953 48.4545 65.7472 48.4545C64.9991 48.4545 64.3835 48.6487 63.9006 49.0369C63.4176 49.4252 63.0601 49.9342 62.8281 50.5639C62.5961 51.1937 62.4801 51.8731 62.4801 52.6023C62.4801 53.3314 62.5961 54.0085 62.8281 54.6335C63.0601 55.2585 63.4176 55.7628 63.9006 56.1463C64.3835 56.5298 64.9991 56.7216 65.7472 56.7216ZM75.7489 56.0114L75.6353 56.7784C75.5548 57.3182 75.4317 57.8958 75.266 58.5114C75.105 59.1269 74.9369 59.7069 74.7617 60.2514C74.5865 60.7959 74.4421 61.2292 74.3285 61.5511H73.0501C73.1116 61.2481 73.1921 60.848 73.2915 60.3509C73.391 59.8537 73.4904 59.2973 73.5898 58.6818C73.694 58.071 73.7792 57.446 73.8455 56.8068L73.9308 56.0114H75.7489ZM89.2237 47.0909V48.5114H83.5703V47.0909H89.2237ZM85.218 44.4773H86.8942V54.875C86.8942 55.3485 86.9628 55.7036 87.1001 55.9403C87.2422 56.1723 87.4221 56.3286 87.6399 56.4091C87.8625 56.4848 88.0968 56.5227 88.343 56.5227C88.5277 56.5227 88.6792 56.5133 88.7976 56.4943C88.916 56.4706 89.0107 56.4517 89.0817 56.4375L89.4226 57.9432C89.3089 57.9858 89.1503 58.0284 88.9467 58.071C88.7431 58.1184 88.4851 58.142 88.1726 58.142C87.6991 58.142 87.2351 58.0402 86.7805 57.8366C86.3307 57.633 85.9567 57.3229 85.6584 56.9062C85.3648 56.4896 85.218 55.964 85.218 55.3295V44.4773ZM91.745 58V47.0909H93.3643V48.7386H93.478C93.6768 48.1989 94.0367 47.7609 94.5575 47.4247C95.0784 47.0885 95.6655 46.9205 96.3189 46.9205C96.442 46.9205 96.5959 46.9228 96.7805 46.9276C96.9652 46.9323 97.1049 46.9394 97.1996 46.9489V48.6534C97.1428 48.6392 97.0125 48.6179 96.8089 48.5895C96.6101 48.5563 96.3994 48.5398 96.1768 48.5398C95.6465 48.5398 95.1731 48.651 94.7564 48.8736C94.3445 49.0914 94.0178 49.3944 93.7763 49.7827C93.5395 50.1662 93.4212 50.6042 93.4212 51.0966V58H91.745ZM102.397 58.2557C101.705 58.2557 101.078 58.1255 100.515 57.8651C99.9511 57.5999 99.5037 57.2188 99.1722 56.7216C98.8408 56.2197 98.6751 55.6136 98.6751 54.9034C98.6751 54.2784 98.7982 53.7718 99.0444 53.3835C99.2906 52.9905 99.6197 52.6828 100.032 52.4602C100.444 52.2377 100.898 52.072 101.395 51.9631C101.897 51.8494 102.401 51.7595 102.908 51.6932C103.571 51.608 104.108 51.544 104.52 51.5014C104.937 51.4541 105.24 51.3759 105.429 51.267C105.623 51.1581 105.721 50.9687 105.721 50.6989V50.642C105.721 49.9413 105.529 49.3968 105.145 49.0085C104.766 48.6203 104.191 48.4261 103.419 48.4261C102.619 48.4261 101.992 48.6013 101.537 48.9517C101.083 49.3021 100.763 49.6761 100.578 50.0739L98.9876 49.5057C99.2717 48.8428 99.6504 48.3267 100.124 47.9574C100.602 47.5833 101.123 47.3229 101.686 47.1761C102.255 47.0246 102.813 46.9489 103.363 46.9489C103.713 46.9489 104.115 46.9915 104.57 47.0767C105.029 47.1572 105.472 47.3253 105.898 47.581C106.329 47.8366 106.686 48.2225 106.971 48.7386C107.255 49.2547 107.397 49.946 107.397 50.8125V58H105.721V56.5227H105.635C105.522 56.7595 105.332 57.0128 105.067 57.2827C104.802 57.5526 104.449 57.7822 104.009 57.9716C103.569 58.161 103.031 58.2557 102.397 58.2557ZM102.652 56.75C103.315 56.75 103.874 56.6198 104.328 56.3594C104.788 56.099 105.133 55.7628 105.365 55.3509C105.602 54.9389 105.721 54.5057 105.721 54.0511V52.517C105.65 52.6023 105.493 52.6804 105.252 52.7514C105.015 52.8177 104.74 52.8769 104.428 52.929C104.12 52.9763 103.819 53.0189 103.526 53.0568C103.237 53.09 103.003 53.1184 102.823 53.142C102.387 53.1989 101.98 53.2912 101.601 53.419C101.227 53.5421 100.924 53.7292 100.692 53.9801C100.465 54.2263 100.351 54.5625 100.351 54.9886C100.351 55.571 100.567 56.0114 100.998 56.3097C101.433 56.6032 101.985 56.75 102.652 56.75ZM110.683 58V43.4545H112.359V48.8239H112.501C112.625 48.6345 112.795 48.393 113.013 48.0994C113.235 47.8011 113.553 47.536 113.964 47.304C114.381 47.0672 114.945 46.9489 115.655 46.9489C116.573 46.9489 117.383 47.1785 118.084 47.6378C118.785 48.0971 119.331 48.7481 119.724 49.5909C120.117 50.4337 120.314 51.428 120.314 52.5739C120.314 53.7292 120.117 54.7306 119.724 55.5781C119.331 56.4209 118.787 57.0743 118.091 57.5384C117.395 57.9976 116.592 58.2273 115.683 58.2273C114.982 58.2273 114.421 58.1113 114 57.8793C113.579 57.6425 113.254 57.375 113.027 57.0767C112.8 56.7737 112.625 56.5227 112.501 56.3239H112.303V58H110.683ZM112.331 52.5455C112.331 53.3693 112.452 54.0961 112.693 54.7259C112.935 55.3509 113.287 55.8409 113.751 56.196C114.215 56.5464 114.784 56.7216 115.456 56.7216C116.157 56.7216 116.741 56.5369 117.21 56.1676C117.684 55.7936 118.039 55.2917 118.276 54.6619C118.517 54.0275 118.638 53.322 118.638 52.5455C118.638 51.7784 118.519 51.0871 118.283 50.4716C118.051 49.8513 117.698 49.3613 117.224 49.0014C116.756 48.6368 116.166 48.4545 115.456 48.4545C114.774 48.4545 114.201 48.6274 113.737 48.973C113.273 49.3139 112.923 49.7921 112.686 50.4077C112.449 51.0185 112.331 51.7311 112.331 52.5455ZM126.088 58.2557C125.397 58.2557 124.769 58.1255 124.206 57.8651C123.643 57.5999 123.195 57.2188 122.864 56.7216C122.532 56.2197 122.366 55.6136 122.366 54.9034C122.366 54.2784 122.49 53.7718 122.736 53.3835C122.982 52.9905 123.311 52.6828 123.723 52.4602C124.135 52.2377 124.589 52.072 125.087 51.9631C125.589 51.8494 126.093 51.7595 126.599 51.6932C127.262 51.608 127.8 51.544 128.212 51.5014C128.628 51.4541 128.931 51.3759 129.121 51.267C129.315 51.1581 129.412 50.9687 129.412 50.6989V50.642C129.412 49.9413 129.22 49.3968 128.837 49.0085C128.458 48.6203 127.883 48.4261 127.111 48.4261C126.311 48.4261 125.683 48.6013 125.229 48.9517C124.774 49.3021 124.455 49.6761 124.27 50.0739L122.679 49.5057C122.963 48.8428 123.342 48.3267 123.815 47.9574C124.294 47.5833 124.814 47.3229 125.378 47.1761C125.946 47.0246 126.505 46.9489 127.054 46.9489C127.404 46.9489 127.807 46.9915 128.261 47.0767C128.721 47.1572 129.163 47.3253 129.589 47.581C130.02 47.8366 130.378 48.2225 130.662 48.7386C130.946 49.2547 131.088 49.946 131.088 50.8125V58H129.412V56.5227H129.327C129.213 56.7595 129.024 57.0128 128.759 57.2827C128.493 57.5526 128.141 57.7822 127.7 57.9716C127.26 58.161 126.723 58.2557 126.088 58.2557ZM126.344 56.75C127.007 56.75 127.565 56.6198 128.02 56.3594C128.479 56.099 128.825 55.7628 129.057 55.3509C129.294 54.9389 129.412 54.5057 129.412 54.0511V52.517C129.341 52.6023 129.185 52.6804 128.943 52.7514C128.706 52.8177 128.432 52.8769 128.119 52.929C127.812 52.9763 127.511 53.0189 127.217 53.0568C126.929 53.09 126.694 53.1184 126.514 53.142C126.079 53.1989 125.671 53.2912 125.293 53.419C124.919 53.5421 124.616 53.7292 124.384 53.9801C124.156 54.2263 124.043 54.5625 124.043 54.9886C124.043 55.571 124.258 56.0114 124.689 56.3097C125.125 56.6032 125.676 56.75 126.344 56.75ZM135.824 43.4545V58H134.147V43.4545H135.824ZM140.57 51.4375V58H138.893V43.4545H140.57V48.7955H140.712C140.967 48.232 141.351 47.7846 141.862 47.4531C142.378 47.117 143.065 46.9489 143.922 46.9489C144.665 46.9489 145.316 47.098 145.875 47.3963C146.434 47.6899 146.867 48.142 147.175 48.7528C147.487 49.3589 147.643 50.1307 147.643 51.0682V58H145.967V51.1818C145.967 50.3153 145.742 49.6454 145.293 49.1719C144.848 48.6937 144.23 48.4545 143.439 48.4545C142.89 48.4545 142.397 48.5705 141.962 48.8026C141.531 49.0346 141.19 49.3731 140.939 49.8182C140.693 50.2633 140.57 50.803 140.57 51.4375ZM155.284 58.2273C154.233 58.2273 153.326 57.9953 152.564 57.5312C151.806 57.0625 151.221 56.4091 150.809 55.571C150.402 54.7282 150.199 53.7481 150.199 52.6307C150.199 51.5133 150.402 50.5284 150.809 49.6761C151.221 48.8191 151.794 48.1515 152.528 47.6733C153.267 47.1903 154.128 46.9489 155.113 46.9489C155.681 46.9489 156.243 47.0436 156.797 47.233C157.35 47.4223 157.855 47.7301 158.309 48.1562C158.764 48.5777 159.126 49.1364 159.396 49.8324C159.666 50.5284 159.801 51.3854 159.801 52.4034V53.1136H151.392V51.6648H158.096C158.096 51.0492 157.973 50.5 157.727 50.017C157.485 49.5341 157.14 49.1529 156.69 48.8736C156.245 48.5942 155.719 48.4545 155.113 48.4545C154.446 48.4545 153.868 48.6203 153.38 48.9517C152.897 49.2784 152.526 49.7045 152.265 50.2301C152.005 50.7557 151.875 51.3191 151.875 51.9205V52.8864C151.875 53.7102 152.017 54.4086 152.301 54.9815C152.59 55.5497 152.99 55.983 153.501 56.2812C154.012 56.5748 154.607 56.7216 155.284 56.7216C155.724 56.7216 156.122 56.66 156.477 56.5369C156.837 56.4091 157.147 56.2197 157.407 55.9688C157.668 55.7131 157.869 55.3958 158.011 55.017L159.63 55.4716C159.46 56.0208 159.173 56.5038 158.771 56.9205C158.368 57.3324 157.871 57.6544 157.279 57.8864C156.688 58.1136 156.022 58.2273 155.284 58.2273ZM172.095 58.2273C171.186 58.2273 170.383 57.9976 169.687 57.5384C168.991 57.0743 168.447 56.4209 168.054 55.5781C167.661 54.7306 167.464 53.7292 167.464 52.5739C167.464 51.428 167.661 50.4337 168.054 49.5909C168.447 48.7481 168.993 48.0971 169.694 47.6378C170.395 47.1785 171.205 46.9489 172.123 46.9489C172.833 46.9489 173.395 47.0672 173.806 47.304C174.223 47.536 174.54 47.8011 174.758 48.0994C174.981 48.393 175.154 48.6345 175.277 48.8239H175.419V43.4545H177.095V58H175.475V56.3239H175.277C175.154 56.5227 174.978 56.7737 174.751 57.0767C174.524 57.375 174.199 57.6425 173.778 57.8793C173.357 58.1113 172.796 58.2273 172.095 58.2273ZM172.322 56.7216C172.994 56.7216 173.563 56.5464 174.027 56.196C174.491 55.8409 174.843 55.3509 175.085 54.7259C175.326 54.0961 175.447 53.3693 175.447 52.5455C175.447 51.7311 175.329 51.0185 175.092 50.4077C174.855 49.7921 174.505 49.3139 174.041 48.973C173.577 48.6274 173.004 48.4545 172.322 48.4545C171.612 48.4545 171.02 48.6368 170.547 49.0014C170.078 49.3613 169.725 49.8513 169.488 50.4716C169.256 51.0871 169.14 51.7784 169.14 52.5455C169.14 53.322 169.259 54.0275 169.495 54.6619C169.737 55.2917 170.092 55.7936 170.561 56.1676C171.034 56.5369 171.621 56.7216 172.322 56.7216ZM184.971 58.2273C183.92 58.2273 183.013 57.9953 182.251 57.5312C181.493 57.0625 180.909 56.4091 180.497 55.571C180.09 54.7282 179.886 53.7481 179.886 52.6307C179.886 51.5133 180.09 50.5284 180.497 49.6761C180.909 48.8191 181.482 48.1515 182.216 47.6733C182.954 47.1903 183.816 46.9489 184.801 46.9489C185.369 46.9489 185.93 47.0436 186.484 47.233C187.038 47.4223 187.542 47.7301 187.997 48.1562C188.451 48.5777 188.814 49.1364 189.083 49.8324C189.353 50.5284 189.488 51.3854 189.488 52.4034V53.1136H181.079V51.6648H187.784C187.784 51.0492 187.661 50.5 187.414 50.017C187.173 49.5341 186.827 49.1529 186.377 48.8736C185.932 48.5942 185.407 48.4545 184.801 48.4545C184.133 48.4545 183.556 48.6203 183.068 48.9517C182.585 49.2784 182.213 49.7045 181.953 50.2301C181.692 50.7557 181.562 51.3191 181.562 51.9205V52.8864C181.562 53.7102 181.704 54.4086 181.988 54.9815C182.277 55.5497 182.677 55.983 183.189 56.2812C183.7 56.5748 184.294 56.7216 184.971 56.7216C185.412 56.7216 185.809 56.66 186.164 56.5369C186.524 56.4091 186.834 56.2197 187.095 55.9688C187.355 55.7131 187.556 55.3958 187.699 55.017L189.318 55.4716C189.147 56.0208 188.861 56.5038 188.458 56.9205C188.056 57.3324 187.559 57.6544 186.967 57.8864C186.375 58.1136 185.71 58.2273 184.971 58.2273ZM202.095 58.2273C201.11 58.2273 200.246 57.9929 199.502 57.5241C198.764 57.0554 198.186 56.3996 197.77 55.5568C197.358 54.714 197.152 53.7292 197.152 52.6023C197.152 51.4659 197.358 50.474 197.77 49.6264C198.186 48.7789 198.764 48.1207 199.502 47.652C200.246 47.1832 201.11 46.9489 202.095 46.9489C203.08 46.9489 203.941 47.1832 204.68 47.652C205.423 48.1207 206.001 48.7789 206.413 49.6264C206.83 50.474 207.038 51.4659 207.038 52.6023C207.038 53.7292 206.83 54.714 206.413 55.5568C206.001 56.3996 205.423 57.0554 204.68 57.5241C203.941 57.9929 203.08 58.2273 202.095 58.2273ZM202.095 56.7216C202.843 56.7216 203.458 56.5298 203.941 56.1463C204.424 55.7628 204.782 55.2585 205.014 54.6335C205.246 54.0085 205.362 53.3314 205.362 52.6023C205.362 51.8731 205.246 51.1937 205.014 50.5639C204.782 49.9342 204.424 49.4252 203.941 49.0369C203.458 48.6487 202.843 48.4545 202.095 48.4545C201.347 48.4545 200.731 48.6487 200.248 49.0369C199.765 49.4252 199.408 49.9342 199.176 50.5639C198.944 51.1937 198.828 51.8731 198.828 52.6023C198.828 53.3314 198.944 54.0085 199.176 54.6335C199.408 55.2585 199.765 55.7628 200.248 56.1463C200.731 56.5298 201.347 56.7216 202.095 56.7216ZM211.273 51.4375V58H209.597V47.0909H211.216V48.7955H211.358C211.614 48.2415 212.002 47.7964 212.523 47.4602C213.044 47.1193 213.716 46.9489 214.54 46.9489C215.278 46.9489 215.925 47.1004 216.479 47.4034C217.033 47.7017 217.464 48.1562 217.771 48.767C218.079 49.3731 218.233 50.1402 218.233 51.0682V58H216.557V51.1818C216.557 50.3248 216.334 49.6572 215.889 49.179C215.444 48.696 214.833 48.4545 214.057 48.4545C213.522 48.4545 213.044 48.5705 212.622 48.8026C212.205 49.0346 211.876 49.3731 211.635 49.8182C211.393 50.2633 211.273 50.803 211.273 51.4375ZM225.415 58.2273C224.506 58.2273 223.703 57.9976 223.007 57.5384C222.311 57.0743 221.767 56.4209 221.374 55.5781C220.981 54.7306 220.784 53.7292 220.784 52.5739C220.784 51.428 220.981 50.4337 221.374 49.5909C221.767 48.7481 222.314 48.0971 223.015 47.6378C223.715 47.1785 224.525 46.9489 225.444 46.9489C226.154 46.9489 226.715 47.0672 227.127 47.304C227.543 47.536 227.861 47.8011 228.078 48.0994C228.301 48.393 228.474 48.6345 228.597 48.8239H228.739V43.4545H230.415V58H228.796V56.3239H228.597C228.474 56.5227 228.299 56.7737 228.071 57.0767C227.844 57.375 227.52 57.6425 227.098 57.8793C226.677 58.1113 226.116 58.2273 225.415 58.2273ZM225.642 56.7216C226.315 56.7216 226.883 56.5464 227.347 56.196C227.811 55.8409 228.164 55.3509 228.405 54.7259C228.647 54.0961 228.767 53.3693 228.767 52.5455C228.767 51.7311 228.649 51.0185 228.412 50.4077C228.176 49.7921 227.825 49.3139 227.361 48.973C226.897 48.6274 226.324 48.4545 225.642 48.4545C224.932 48.4545 224.34 48.6368 223.867 49.0014C223.398 49.3613 223.045 49.8513 222.809 50.4716C222.577 51.0871 222.461 51.7784 222.461 52.5455C222.461 53.322 222.579 54.0275 222.816 54.6619C223.057 55.2917 223.412 55.7936 223.881 56.1676C224.355 56.5369 224.942 56.7216 225.642 56.7216ZM238.292 58.2273C237.24 58.2273 236.334 57.9953 235.571 57.5312C234.814 57.0625 234.229 56.4091 233.817 55.571C233.41 54.7282 233.206 53.7481 233.206 52.6307C233.206 51.5133 233.41 50.5284 233.817 49.6761C234.229 48.8191 234.802 48.1515 235.536 47.6733C236.275 47.1903 237.136 46.9489 238.121 46.9489C238.689 46.9489 239.25 47.0436 239.804 47.233C240.358 47.4223 240.863 47.7301 241.317 48.1562C241.772 48.5777 242.134 49.1364 242.404 49.8324C242.674 50.5284 242.809 51.3854 242.809 52.4034V53.1136H234.4V51.6648H241.104C241.104 51.0492 240.981 50.5 240.735 50.017C240.493 49.5341 240.148 49.1529 239.698 48.8736C239.253 48.5942 238.727 48.4545 238.121 48.4545C237.453 48.4545 236.876 48.6203 236.388 48.9517C235.905 49.2784 235.533 49.7045 235.273 50.2301C235.013 50.7557 234.882 51.3191 234.882 51.9205V52.8864C234.882 53.7102 235.025 54.4086 235.309 54.9815C235.597 55.5497 235.998 55.983 236.509 56.2812C237.02 56.5748 237.614 56.7216 238.292 56.7216C238.732 56.7216 239.13 56.66 239.485 56.5369C239.845 56.4091 240.155 56.2197 240.415 55.9688C240.676 55.7131 240.877 55.3958 241.019 55.017L242.638 55.4716C242.468 56.0208 242.181 56.5038 241.779 56.9205C241.376 57.3324 240.879 57.6544 240.287 57.8864C239.695 58.1136 239.03 58.2273 238.292 58.2273ZM258.426 62.0909V56.3239H258.284C258.161 56.5227 257.986 56.7737 257.759 57.0767C257.532 57.375 257.207 57.6425 256.786 57.8793C256.364 58.1113 255.803 58.2273 255.103 58.2273C254.194 58.2273 253.391 57.9976 252.695 57.5384C251.999 57.0743 251.454 56.4209 251.061 55.5781C250.668 54.7306 250.472 53.7292 250.472 52.5739C250.472 51.428 250.668 50.4337 251.061 49.5909C251.454 48.7481 252.001 48.0971 252.702 47.6378C253.403 47.1785 254.212 46.9489 255.131 46.9489C255.841 46.9489 256.402 47.0672 256.814 47.304C257.231 47.536 257.548 47.8011 257.766 48.0994C257.989 48.393 258.161 48.6345 258.284 48.8239H258.483V47.0909H260.103V62.0909H258.426ZM255.33 56.7216C256.002 56.7216 256.57 56.5464 257.034 56.196C257.498 55.8409 257.851 55.3509 258.093 54.7259C258.334 54.0961 258.455 53.3693 258.455 52.5455C258.455 51.7311 258.337 51.0185 258.1 50.4077C257.863 49.7921 257.513 49.3139 257.049 48.973C256.585 48.6274 256.012 48.4545 255.33 48.4545C254.62 48.4545 254.028 48.6368 253.554 49.0014C253.086 49.3613 252.733 49.8513 252.496 50.4716C252.264 51.0871 252.148 51.7784 252.148 52.5455C252.148 53.322 252.266 54.0275 252.503 54.6619C252.745 55.2917 253.1 55.7936 253.569 56.1676C254.042 56.5369 254.629 56.7216 255.33 56.7216ZM270.046 53.5398V47.0909H271.722V58H270.046V56.1534H269.932C269.676 56.7074 269.279 57.1785 268.739 57.5668C268.199 57.9503 267.517 58.142 266.694 58.142C266.012 58.142 265.406 57.9929 264.875 57.6946C264.345 57.3916 263.928 56.937 263.625 56.331C263.322 55.7202 263.171 54.9508 263.171 54.0227V47.0909H264.847V53.9091C264.847 54.7045 265.069 55.339 265.515 55.8125C265.964 56.286 266.537 56.5227 267.233 56.5227C267.65 56.5227 268.074 56.4162 268.505 56.2031C268.94 55.9901 269.305 55.6634 269.598 55.223C269.897 54.7827 270.046 54.2216 270.046 53.5398ZM274.792 58V47.0909H276.468V58H274.792ZM275.644 45.2727C275.317 45.2727 275.036 45.1615 274.799 44.9389C274.567 44.7164 274.451 44.4489 274.451 44.1364C274.451 43.8239 274.567 43.5563 274.799 43.3338C275.036 43.1113 275.317 43 275.644 43C275.971 43 276.25 43.1113 276.482 43.3338C276.719 43.5563 276.837 43.8239 276.837 44.1364C276.837 44.4489 276.719 44.7164 276.482 44.9389C276.25 45.1615 275.971 45.2727 275.644 45.2727ZM287.265 49.5341L285.76 49.9602C285.665 49.7093 285.525 49.4654 285.341 49.2287C285.161 48.9872 284.914 48.7884 284.602 48.6321C284.289 48.4759 283.889 48.3977 283.402 48.3977C282.734 48.3977 282.178 48.5516 281.733 48.8594C281.292 49.1624 281.072 49.5483 281.072 50.017C281.072 50.4337 281.224 50.7628 281.527 51.0043C281.83 51.2457 282.303 51.447 282.947 51.608L284.566 52.0057C285.542 52.2424 286.269 52.6046 286.747 53.0923C287.225 53.5753 287.464 54.1979 287.464 54.9602C287.464 55.5852 287.284 56.1439 286.924 56.6364C286.569 57.1288 286.072 57.517 285.433 57.8011C284.794 58.0852 284.05 58.2273 283.203 58.2273C282.09 58.2273 281.169 57.9858 280.44 57.5028C279.711 57.0199 279.249 56.3144 279.055 55.3864L280.646 54.9886C280.797 55.5758 281.084 56.0161 281.505 56.3097C281.931 56.6032 282.488 56.75 283.174 56.75C283.956 56.75 284.576 56.5843 285.035 56.2528C285.499 55.9167 285.731 55.5142 285.731 55.0455C285.731 54.6667 285.599 54.3494 285.333 54.0938C285.068 53.8333 284.661 53.6392 284.112 53.5114L282.294 53.0852C281.295 52.8485 280.561 52.4815 280.092 51.9844C279.628 51.4825 279.396 50.8551 279.396 50.1023C279.396 49.4867 279.569 48.9422 279.914 48.4688C280.265 47.9953 280.741 47.6236 281.342 47.3537C281.948 47.0838 282.635 46.9489 283.402 46.9489C284.481 46.9489 285.329 47.1856 285.944 47.6591C286.565 48.1326 287.005 48.7576 287.265 49.5341ZM294.561 58.2273C293.51 58.2273 292.603 57.9953 291.841 57.5312C291.083 57.0625 290.499 56.4091 290.087 55.571C289.679 54.7282 289.476 53.7481 289.476 52.6307C289.476 51.5133 289.679 50.5284 290.087 49.6761C290.499 48.8191 291.071 48.1515 291.805 47.6733C292.544 47.1903 293.406 46.9489 294.391 46.9489C294.959 46.9489 295.52 47.0436 296.074 47.233C296.628 47.4223 297.132 47.7301 297.587 48.1562C298.041 48.5777 298.403 49.1364 298.673 49.8324C298.943 50.5284 299.078 51.3854 299.078 52.4034V53.1136H290.669V51.6648H297.374C297.374 51.0492 297.25 50.5 297.004 50.017C296.763 49.5341 296.417 49.1529 295.967 48.8736C295.522 48.5942 294.997 48.4545 294.391 48.4545C293.723 48.4545 293.145 48.6203 292.658 48.9517C292.175 49.2784 291.803 49.7045 291.543 50.2301C291.282 50.7557 291.152 51.3191 291.152 51.9205V52.8864C291.152 53.7102 291.294 54.4086 291.578 54.9815C291.867 55.5497 292.267 55.983 292.778 56.2812C293.29 56.5748 293.884 56.7216 294.561 56.7216C295.001 56.7216 295.399 56.66 295.754 56.5369C296.114 56.4091 296.424 56.2197 296.685 55.9688C296.945 55.7131 297.146 55.3958 297.288 55.017L298.908 55.4716C298.737 56.0208 298.451 56.5038 298.048 56.9205C297.646 57.3324 297.149 57.6544 296.557 57.8864C295.965 58.1136 295.3 58.2273 294.561 58.2273ZM301.628 58V47.0909H303.247V48.7386H303.361C303.56 48.1989 303.92 47.7609 304.44 47.4247C304.961 47.0885 305.548 46.9205 306.202 46.9205C306.325 46.9205 306.479 46.9228 306.663 46.9276C306.848 46.9323 306.988 46.9394 307.082 46.9489V48.6534C307.026 48.6392 306.895 48.6179 306.692 48.5895C306.493 48.5563 306.282 48.5398 306.06 48.5398C305.529 48.5398 305.056 48.651 304.639 48.8736C304.227 49.0914 303.901 49.3944 303.659 49.7827C303.422 50.1662 303.304 50.6042 303.304 51.0966V58H301.628ZM309.041 58.1136C308.69 58.1136 308.39 57.9882 308.139 57.7372C307.888 57.4863 307.762 57.1856 307.762 56.8352C307.762 56.4848 307.888 56.1842 308.139 55.9332C308.39 55.6823 308.69 55.5568 309.041 55.5568C309.391 55.5568 309.692 55.6823 309.943 55.9332C310.194 56.1842 310.319 56.4848 310.319 56.8352C310.319 57.0672 310.26 57.2803 310.142 57.4744C310.028 57.6686 309.874 57.8248 309.68 57.9432C309.491 58.0568 309.278 58.1136 309.041 58.1136Z" fill="black"/>
</svg>
